<svg width="32" height="33" viewBox="0 0 32 33" fill="none" xmlns="http://www.w3.org/2000/svg">
<path d="M15.9011 8.61539C11.4124 8.61539 7.78976 12.2381 7.78976 16.7269C7.78976 21.2157 11.4124 24.8384 15.9011 24.8384C20.3898 24.8384 24.0125 21.2157 24.0125 16.7269C24.0125 12.2381 20.3898 8.61539 15.9011 8.61539ZM15.9011 21.9988C12.9983 21.9988 10.6293 19.6298 10.6293 16.7269C10.6293 13.824 12.9983 11.455 15.9011 11.455C18.804 11.455 21.1729 13.824 21.1729 16.7269C21.1729 19.6298 18.804 21.9988 15.9011 21.9988ZM24.3447 6.39273C23.2966 6.39273 22.4503 7.23908 22.4503 8.28713C22.4503 9.33518 23.2966 10.1815 24.3447 10.1815C25.3927 10.1815 26.239 9.33914 26.239 8.28713C26.2394 8.03827 26.1906 7.79179 26.0955 7.56181C26.0004 7.33183 25.8609 7.12287 25.6849 6.94689C25.5089 6.77092 25.3 6.63139 25.07 6.5363C24.84 6.44121 24.5935 6.39242 24.3447 6.39273ZM31.7125 16.7269C31.7125 14.5438 31.7323 12.3805 31.6097 10.2013C31.4871 7.67017 30.9097 5.42378 29.0588 3.57289C27.204 1.71804 24.9616 1.14457 22.4305 1.02197C20.2475 0.899371 18.0842 0.919145 15.9051 0.919145C13.722 0.919145 11.5587 0.899371 9.3796 1.02197C6.84851 1.14457 4.60216 1.72199 2.7513 3.57289C0.896488 5.42774 0.323037 7.67017 0.200437 10.2013C0.0778377 12.3844 0.0976119 14.5477 0.0976119 16.7269C0.0976119 18.906 0.0778377 21.0733 0.200437 23.2525C0.323037 25.7836 0.900443 28.03 2.7513 29.8809C4.60612 31.7358 6.84851 32.3092 9.3796 32.4318C11.5627 32.5544 13.726 32.5346 15.9051 32.5346C18.0881 32.5346 20.2514 32.5544 22.4305 32.4318C24.9616 32.3092 27.208 31.7318 29.0588 29.8809C30.9137 28.0261 31.4871 25.7836 31.6097 23.2525C31.7363 21.0733 31.7125 18.91 31.7125 16.7269ZM28.2323 26.0526C27.9436 26.7724 27.5956 27.3102 27.0379 27.8639C26.4803 28.4215 25.9464 28.7696 25.2266 29.0583C23.1464 29.8849 18.2068 29.699 15.9011 29.699C13.5954 29.699 8.65191 29.8849 6.57167 29.0622C5.85189 28.7735 5.31403 28.4255 4.76036 27.8679C4.20273 27.3102 3.8547 26.7763 3.566 26.0565C2.74339 23.9723 2.92927 19.0326 2.92927 16.7269C2.92927 14.4212 2.74339 9.47756 3.566 7.39728C3.8547 6.67749 4.20273 6.13962 4.76036 5.58593C5.31799 5.03225 5.85189 4.68026 6.57167 4.39155C8.65191 3.56893 13.5954 3.75481 15.9011 3.75481C18.2068 3.75481 23.1503 3.56893 25.2306 4.39155C25.9503 4.68026 26.4882 5.02829 27.0419 5.58593C27.5995 6.14357 27.9475 6.67749 28.2362 7.39728C29.0588 9.47756 28.873 14.4212 28.873 16.7269C28.873 19.0326 29.0588 23.9723 28.2323 26.0526Z" fill="white"/>
</svg>
