<svg width="35" height="28" viewBox="0 0 35 28" fill="none" xmlns="http://www.w3.org/2000/svg">
<path d="M11.5387 27.9139C24.3883 27.9139 31.4175 17.3064 31.4175 8.12379C31.4175 7.82696 31.4175 7.52589 31.4048 7.22906C32.7733 6.24207 33.9544 5.02012 34.8928 3.62045C33.6144 4.18199 32.2598 4.55209 30.8727 4.71872C32.3338 3.84867 33.428 2.47971 33.9521 0.866292C32.5795 1.67648 31.0771 2.24522 29.5107 2.54762C28.4577 1.43032 27.0643 0.690139 25.5462 0.441734C24.0282 0.193329 22.4703 0.450563 21.1139 1.17359C19.7575 1.89662 18.6782 3.04509 18.0432 4.4411C17.4083 5.83712 17.2531 7.40278 17.6018 8.89555C14.824 8.75679 12.1065 8.03786 9.62564 6.78539C7.14472 5.53293 4.95577 3.7749 3.20074 1.62533C2.30978 3.15842 2.03787 4.97188 2.44024 6.69745C2.84261 8.42302 3.88909 9.93134 5.36717 10.9161C4.25956 10.8786 3.17631 10.5823 2.20477 10.0511V10.1465C2.20668 11.7525 2.76512 13.3086 3.7857 14.5518C4.80628 15.7949 6.22639 16.6489 7.806 16.9693C7.20643 17.1339 6.58707 17.2159 5.96517 17.2132C5.52674 17.2145 5.08919 17.174 4.6585 17.0923C5.10495 18.4748 5.97426 19.6836 7.14468 20.5493C8.31509 21.415 9.72798 21.8943 11.1855 21.92C8.70951 23.8575 5.65106 24.9083 2.50271 24.9032C1.94795 24.9055 1.39358 24.8737 0.842773 24.8078C4.03818 26.8374 7.74917 27.9151 11.5387 27.9139Z" fill="white"/>
</svg>
